<mxfile host="app.diagrams.net" modified="2021-07-04T06:26:36.703Z" agent="5.0 (Windows NT 10.0; Win64; x64) AppleWebKit/537.36 (KHTML, like Gecko) Chrome/91.0.4472.124 Safari/537.36" etag="VScdDonuhMqdkedT5TYh" version="14.8.3" type="github">
  <diagram id="C5RBs43oDa-KdzZeNtuy" name="Page-1">
    <mxGraphModel dx="1065" dy="500" grid="1" gridSize="10" guides="1" tooltips="1" connect="1" arrows="1" fold="1" page="1" pageScale="1" pageWidth="827" pageHeight="1169" math="0" shadow="0">
      <root>
        <mxCell id="WIyWlLk6GJQsqaUBKTNV-0" />
        <mxCell id="WIyWlLk6GJQsqaUBKTNV-1" parent="WIyWlLk6GJQsqaUBKTNV-0" />
        <mxCell id="8lQPjoXVOzEON_PXD_PX-17" value="" style="group" vertex="1" connectable="0" parent="WIyWlLk6GJQsqaUBKTNV-1">
          <mxGeometry x="320" y="30" width="254" height="250" as="geometry" />
        </mxCell>
        <mxCell id="WIyWlLk6GJQsqaUBKTNV-2" value="" style="rounded=0;html=1;jettySize=auto;orthogonalLoop=1;fontSize=11;endArrow=block;endFill=0;endSize=8;strokeWidth=1;shadow=0;labelBackgroundColor=none;edgeStyle=orthogonalEdgeStyle;" parent="8lQPjoXVOzEON_PXD_PX-17" source="WIyWlLk6GJQsqaUBKTNV-3" edge="1">
          <mxGeometry relative="1" as="geometry">
            <mxPoint x="60" y="50" as="targetPoint" />
            <Array as="points">
              <mxPoint x="60" y="50" />
              <mxPoint x="60" y="50" />
            </Array>
          </mxGeometry>
        </mxCell>
        <mxCell id="WIyWlLk6GJQsqaUBKTNV-3" value="Start" style="rounded=1;whiteSpace=wrap;html=1;fontSize=12;glass=0;strokeWidth=1;shadow=0;" parent="8lQPjoXVOzEON_PXD_PX-17" vertex="1">
          <mxGeometry x="35" width="50" height="20" as="geometry" />
        </mxCell>
        <mxCell id="WIyWlLk6GJQsqaUBKTNV-6" value="spam &amp;lt; 5" style="rhombus;whiteSpace=wrap;html=1;shadow=0;fontFamily=Helvetica;fontSize=12;align=center;strokeWidth=1;spacing=6;spacingTop=-4;" parent="8lQPjoXVOzEON_PXD_PX-17" vertex="1">
          <mxGeometry x="10" y="90" width="100" height="80" as="geometry" />
        </mxCell>
        <mxCell id="8lQPjoXVOzEON_PXD_PX-1" value="End" style="rounded=1;whiteSpace=wrap;html=1;fontSize=12;glass=0;strokeWidth=1;shadow=0;" vertex="1" parent="8lQPjoXVOzEON_PXD_PX-17">
          <mxGeometry x="35" y="230" width="50" height="20" as="geometry" />
        </mxCell>
        <mxCell id="8lQPjoXVOzEON_PXD_PX-2" value="print(&#39;&#39;Hello, World.)" style="rounded=0;whiteSpace=wrap;html=1;" vertex="1" parent="8lQPjoXVOzEON_PXD_PX-17">
          <mxGeometry x="134" y="120" width="120" height="20" as="geometry" />
        </mxCell>
        <mxCell id="8lQPjoXVOzEON_PXD_PX-3" value="spam += 1" style="rounded=0;whiteSpace=wrap;html=1;" vertex="1" parent="8lQPjoXVOzEON_PXD_PX-17">
          <mxGeometry x="134" y="187.5" width="120" height="20" as="geometry" />
        </mxCell>
        <mxCell id="8lQPjoXVOzEON_PXD_PX-4" value="spam = 0" style="rounded=0;whiteSpace=wrap;html=1;" vertex="1" parent="8lQPjoXVOzEON_PXD_PX-17">
          <mxGeometry y="50" width="120" height="20" as="geometry" />
        </mxCell>
        <mxCell id="8lQPjoXVOzEON_PXD_PX-7" value="" style="rounded=0;html=1;jettySize=auto;orthogonalLoop=1;fontSize=11;endArrow=block;endFill=0;endSize=8;strokeWidth=1;shadow=0;labelBackgroundColor=none;edgeStyle=orthogonalEdgeStyle;exitX=0.5;exitY=1;exitDx=0;exitDy=0;entryX=0.5;entryY=0;entryDx=0;entryDy=0;" edge="1" parent="8lQPjoXVOzEON_PXD_PX-17" source="8lQPjoXVOzEON_PXD_PX-4" target="WIyWlLk6GJQsqaUBKTNV-6">
          <mxGeometry relative="1" as="geometry">
            <mxPoint x="70" y="40" as="sourcePoint" />
            <mxPoint x="70" y="60" as="targetPoint" />
          </mxGeometry>
        </mxCell>
        <mxCell id="8lQPjoXVOzEON_PXD_PX-8" value="" style="rounded=0;html=1;jettySize=auto;orthogonalLoop=1;fontSize=11;endArrow=block;endFill=0;endSize=8;strokeWidth=1;shadow=0;labelBackgroundColor=none;edgeStyle=orthogonalEdgeStyle;exitX=1;exitY=0.5;exitDx=0;exitDy=0;entryX=0;entryY=0.5;entryDx=0;entryDy=0;" edge="1" parent="8lQPjoXVOzEON_PXD_PX-17" source="WIyWlLk6GJQsqaUBKTNV-6" target="8lQPjoXVOzEON_PXD_PX-2">
          <mxGeometry relative="1" as="geometry">
            <mxPoint x="70" y="80" as="sourcePoint" />
            <mxPoint x="130" y="130" as="targetPoint" />
          </mxGeometry>
        </mxCell>
        <mxCell id="8lQPjoXVOzEON_PXD_PX-10" value="" style="rounded=0;html=1;jettySize=auto;orthogonalLoop=1;fontSize=11;endArrow=block;endFill=0;endSize=8;strokeWidth=1;shadow=0;labelBackgroundColor=none;edgeStyle=orthogonalEdgeStyle;exitX=0.5;exitY=1;exitDx=0;exitDy=0;entryX=0.5;entryY=0;entryDx=0;entryDy=0;" edge="1" parent="8lQPjoXVOzEON_PXD_PX-17" source="8lQPjoXVOzEON_PXD_PX-2" target="8lQPjoXVOzEON_PXD_PX-3">
          <mxGeometry relative="1" as="geometry">
            <mxPoint x="70" y="80" as="sourcePoint" />
            <mxPoint x="70" y="100" as="targetPoint" />
          </mxGeometry>
        </mxCell>
        <mxCell id="8lQPjoXVOzEON_PXD_PX-11" value="" style="ellipse;whiteSpace=wrap;html=1;aspect=fixed;" vertex="1" parent="8lQPjoXVOzEON_PXD_PX-17">
          <mxGeometry x="52.5" y="190" width="15" height="15" as="geometry" />
        </mxCell>
        <mxCell id="8lQPjoXVOzEON_PXD_PX-12" value="" style="rounded=0;html=1;jettySize=auto;orthogonalLoop=1;fontSize=11;endArrow=block;endFill=0;endSize=8;strokeWidth=1;shadow=0;labelBackgroundColor=none;edgeStyle=orthogonalEdgeStyle;exitX=0.5;exitY=1;exitDx=0;exitDy=0;" edge="1" parent="8lQPjoXVOzEON_PXD_PX-17" source="WIyWlLk6GJQsqaUBKTNV-6">
          <mxGeometry relative="1" as="geometry">
            <mxPoint x="70" y="80" as="sourcePoint" />
            <mxPoint x="60" y="190" as="targetPoint" />
          </mxGeometry>
        </mxCell>
        <mxCell id="8lQPjoXVOzEON_PXD_PX-13" value="" style="rounded=0;html=1;jettySize=auto;orthogonalLoop=1;fontSize=11;endArrow=block;endFill=0;endSize=8;strokeWidth=1;shadow=0;labelBackgroundColor=none;edgeStyle=orthogonalEdgeStyle;entryX=1;entryY=0.5;entryDx=0;entryDy=0;exitX=0;exitY=0.5;exitDx=0;exitDy=0;" edge="1" parent="8lQPjoXVOzEON_PXD_PX-17" source="8lQPjoXVOzEON_PXD_PX-3" target="8lQPjoXVOzEON_PXD_PX-11">
          <mxGeometry relative="1" as="geometry">
            <mxPoint x="131" y="198" as="sourcePoint" />
            <mxPoint x="144" y="140" as="targetPoint" />
            <Array as="points" />
          </mxGeometry>
        </mxCell>
        <mxCell id="8lQPjoXVOzEON_PXD_PX-14" value="T" style="text;html=1;strokeColor=none;fillColor=none;align=center;verticalAlign=middle;whiteSpace=wrap;rounded=0;" vertex="1" parent="8lQPjoXVOzEON_PXD_PX-17">
          <mxGeometry x="94" y="110" width="40" height="20" as="geometry" />
        </mxCell>
        <mxCell id="8lQPjoXVOzEON_PXD_PX-15" value="F" style="text;html=1;strokeColor=none;fillColor=none;align=center;verticalAlign=middle;whiteSpace=wrap;rounded=0;" vertex="1" parent="8lQPjoXVOzEON_PXD_PX-17">
          <mxGeometry x="52.5" y="160" width="40" height="20" as="geometry" />
        </mxCell>
        <mxCell id="8lQPjoXVOzEON_PXD_PX-16" value="" style="rounded=0;html=1;jettySize=auto;orthogonalLoop=1;fontSize=11;endArrow=block;endFill=0;endSize=8;strokeWidth=1;shadow=0;labelBackgroundColor=none;edgeStyle=orthogonalEdgeStyle;exitX=0.5;exitY=1;exitDx=0;exitDy=0;entryX=0.5;entryY=0;entryDx=0;entryDy=0;" edge="1" parent="8lQPjoXVOzEON_PXD_PX-17" source="8lQPjoXVOzEON_PXD_PX-11" target="8lQPjoXVOzEON_PXD_PX-1">
          <mxGeometry relative="1" as="geometry">
            <mxPoint x="70" y="180" as="sourcePoint" />
            <mxPoint x="70" y="200" as="targetPoint" />
            <Array as="points">
              <mxPoint x="60" y="220" />
              <mxPoint x="60" y="220" />
            </Array>
          </mxGeometry>
        </mxCell>
        <mxCell id="8lQPjoXVOzEON_PXD_PX-36" value="" style="ellipse;whiteSpace=wrap;html=1;aspect=fixed;" vertex="1" parent="WIyWlLk6GJQsqaUBKTNV-1">
          <mxGeometry x="111.25" y="240" width="17.5" height="17.5" as="geometry" />
        </mxCell>
        <mxCell id="8lQPjoXVOzEON_PXD_PX-22" value="End" style="rounded=1;whiteSpace=wrap;html=1;fontSize=12;glass=0;strokeWidth=1;shadow=0;" vertex="1" parent="WIyWlLk6GJQsqaUBKTNV-1">
          <mxGeometry x="95" y="282.5" width="50" height="20" as="geometry" />
        </mxCell>
        <mxCell id="8lQPjoXVOzEON_PXD_PX-34" value="" style="rounded=0;html=1;jettySize=auto;orthogonalLoop=1;fontSize=11;endArrow=block;endFill=0;endSize=8;strokeWidth=1;shadow=0;labelBackgroundColor=none;edgeStyle=orthogonalEdgeStyle;exitX=0.5;exitY=1;exitDx=0;exitDy=0;entryX=0.5;entryY=0;entryDx=0;entryDy=0;" edge="1" parent="WIyWlLk6GJQsqaUBKTNV-1" target="8lQPjoXVOzEON_PXD_PX-22">
          <mxGeometry relative="1" as="geometry">
            <mxPoint x="120" y="257.5" as="sourcePoint" />
            <mxPoint x="130" y="252.5" as="targetPoint" />
            <Array as="points">
              <mxPoint x="120" y="272.5" />
              <mxPoint x="120" y="272.5" />
            </Array>
          </mxGeometry>
        </mxCell>
        <mxCell id="8lQPjoXVOzEON_PXD_PX-19" value="" style="rounded=0;html=1;jettySize=auto;orthogonalLoop=1;fontSize=11;endArrow=block;endFill=0;endSize=8;strokeWidth=1;shadow=0;labelBackgroundColor=none;edgeStyle=orthogonalEdgeStyle;" edge="1" parent="WIyWlLk6GJQsqaUBKTNV-1" source="8lQPjoXVOzEON_PXD_PX-20">
          <mxGeometry x="60" y="30" as="geometry">
            <mxPoint x="120" y="80" as="targetPoint" />
            <Array as="points">
              <mxPoint x="120" y="80" />
              <mxPoint x="120" y="80" />
            </Array>
          </mxGeometry>
        </mxCell>
        <mxCell id="8lQPjoXVOzEON_PXD_PX-20" value="Start" style="rounded=1;whiteSpace=wrap;html=1;fontSize=12;glass=0;strokeWidth=1;shadow=0;" vertex="1" parent="WIyWlLk6GJQsqaUBKTNV-1">
          <mxGeometry x="95" y="30" width="50" height="20" as="geometry" />
        </mxCell>
        <mxCell id="8lQPjoXVOzEON_PXD_PX-21" value="spam &amp;lt; 5" style="rhombus;whiteSpace=wrap;html=1;shadow=0;fontFamily=Helvetica;fontSize=12;align=center;strokeWidth=1;spacing=6;spacingTop=-4;" vertex="1" parent="WIyWlLk6GJQsqaUBKTNV-1">
          <mxGeometry x="70" y="120" width="100" height="80" as="geometry" />
        </mxCell>
        <mxCell id="8lQPjoXVOzEON_PXD_PX-23" value="print(&#39;&#39;Hello, World.)" style="rounded=0;whiteSpace=wrap;html=1;" vertex="1" parent="WIyWlLk6GJQsqaUBKTNV-1">
          <mxGeometry x="194" y="150" width="120" height="20" as="geometry" />
        </mxCell>
        <mxCell id="8lQPjoXVOzEON_PXD_PX-24" value="spam += 1" style="rounded=0;whiteSpace=wrap;html=1;" vertex="1" parent="WIyWlLk6GJQsqaUBKTNV-1">
          <mxGeometry x="194" y="217.5" width="120" height="20" as="geometry" />
        </mxCell>
        <mxCell id="8lQPjoXVOzEON_PXD_PX-25" value="spam = 0" style="rounded=0;whiteSpace=wrap;html=1;" vertex="1" parent="WIyWlLk6GJQsqaUBKTNV-1">
          <mxGeometry x="60" y="80" width="120" height="20" as="geometry" />
        </mxCell>
        <mxCell id="8lQPjoXVOzEON_PXD_PX-26" value="" style="rounded=0;html=1;jettySize=auto;orthogonalLoop=1;fontSize=11;endArrow=block;endFill=0;endSize=8;strokeWidth=1;shadow=0;labelBackgroundColor=none;edgeStyle=orthogonalEdgeStyle;exitX=0.5;exitY=1;exitDx=0;exitDy=0;entryX=0.5;entryY=0;entryDx=0;entryDy=0;" edge="1" parent="WIyWlLk6GJQsqaUBKTNV-1" source="8lQPjoXVOzEON_PXD_PX-25" target="8lQPjoXVOzEON_PXD_PX-21">
          <mxGeometry x="60" y="30" as="geometry">
            <mxPoint x="130" y="70" as="sourcePoint" />
            <mxPoint x="130" y="90" as="targetPoint" />
          </mxGeometry>
        </mxCell>
        <mxCell id="8lQPjoXVOzEON_PXD_PX-27" value="" style="rounded=0;html=1;jettySize=auto;orthogonalLoop=1;fontSize=11;endArrow=block;endFill=0;endSize=8;strokeWidth=1;shadow=0;labelBackgroundColor=none;edgeStyle=orthogonalEdgeStyle;exitX=1;exitY=0.5;exitDx=0;exitDy=0;entryX=0;entryY=0.5;entryDx=0;entryDy=0;" edge="1" parent="WIyWlLk6GJQsqaUBKTNV-1" source="8lQPjoXVOzEON_PXD_PX-21" target="8lQPjoXVOzEON_PXD_PX-23">
          <mxGeometry x="60" y="30" as="geometry">
            <mxPoint x="130" y="110" as="sourcePoint" />
            <mxPoint x="190" y="160" as="targetPoint" />
          </mxGeometry>
        </mxCell>
        <mxCell id="8lQPjoXVOzEON_PXD_PX-28" value="" style="rounded=0;html=1;jettySize=auto;orthogonalLoop=1;fontSize=11;endArrow=block;endFill=0;endSize=8;strokeWidth=1;shadow=0;labelBackgroundColor=none;edgeStyle=orthogonalEdgeStyle;exitX=0.5;exitY=1;exitDx=0;exitDy=0;entryX=0.5;entryY=0;entryDx=0;entryDy=0;" edge="1" parent="WIyWlLk6GJQsqaUBKTNV-1" source="8lQPjoXVOzEON_PXD_PX-23" target="8lQPjoXVOzEON_PXD_PX-24">
          <mxGeometry x="60" y="30" as="geometry">
            <mxPoint x="130" y="110" as="sourcePoint" />
            <mxPoint x="130" y="130" as="targetPoint" />
          </mxGeometry>
        </mxCell>
        <mxCell id="8lQPjoXVOzEON_PXD_PX-30" value="" style="rounded=0;html=1;jettySize=auto;orthogonalLoop=1;fontSize=11;endArrow=block;endFill=0;endSize=8;strokeWidth=1;shadow=0;labelBackgroundColor=none;edgeStyle=orthogonalEdgeStyle;" edge="1" parent="WIyWlLk6GJQsqaUBKTNV-1">
          <mxGeometry x="60" y="30" as="geometry">
            <mxPoint x="70" y="160" as="sourcePoint" />
            <mxPoint x="110" y="250" as="targetPoint" />
            <Array as="points">
              <mxPoint x="40" y="160" />
              <mxPoint x="40" y="250" />
            </Array>
          </mxGeometry>
        </mxCell>
        <mxCell id="8lQPjoXVOzEON_PXD_PX-31" value="" style="rounded=0;html=1;jettySize=auto;orthogonalLoop=1;fontSize=11;endArrow=block;endFill=0;endSize=8;strokeWidth=1;shadow=0;labelBackgroundColor=none;edgeStyle=orthogonalEdgeStyle;entryX=0.5;entryY=1;entryDx=0;entryDy=0;exitX=0;exitY=0.5;exitDx=0;exitDy=0;" edge="1" parent="WIyWlLk6GJQsqaUBKTNV-1" source="8lQPjoXVOzEON_PXD_PX-24" target="8lQPjoXVOzEON_PXD_PX-21">
          <mxGeometry x="60" y="30" as="geometry">
            <mxPoint x="191" y="228" as="sourcePoint" />
            <mxPoint x="127.5" y="227.5" as="targetPoint" />
            <Array as="points" />
          </mxGeometry>
        </mxCell>
        <mxCell id="8lQPjoXVOzEON_PXD_PX-32" value="T" style="text;html=1;strokeColor=none;fillColor=none;align=center;verticalAlign=middle;whiteSpace=wrap;rounded=0;" vertex="1" parent="WIyWlLk6GJQsqaUBKTNV-1">
          <mxGeometry x="154" y="140" width="40" height="20" as="geometry" />
        </mxCell>
        <mxCell id="8lQPjoXVOzEON_PXD_PX-33" value="F" style="text;html=1;strokeColor=none;fillColor=none;align=center;verticalAlign=middle;whiteSpace=wrap;rounded=0;" vertex="1" parent="WIyWlLk6GJQsqaUBKTNV-1">
          <mxGeometry x="50" y="140" width="40" height="20" as="geometry" />
        </mxCell>
      </root>
    </mxGraphModel>
  </diagram>
</mxfile>
